<?xml version="1.0" encoding="UTF-8"?>
<svg xmlns="http://www.w3.org/2000/svg" viewBox="0 0 110 220" width="110" height="220">
  <ellipse cx="50" cy="212" rx="30" ry="3" fill="#000000" opacity="0.14"/>
  <path d="M 28 56 Q 28 50 34 50 L 76 50 Q 82 50 82 56 L 80 120 Q 80 124 76 124 L 34 124 Q 30 124 30 120 Z" fill="#E8DCC0"/>
  <line x1="45" y1="50" x2="45" y2="124" stroke="#C8BCA0" stroke-width="1.2"/>
  <line x1="65" y1="50" x2="65" y2="124" stroke="#C8BCA0" stroke-width="1.2"/>
  <circle cx="55" cy="30" r="19" fill="#E0AE7B"/>
  <path d="M 36 28 Q 40 12 55 12 Q 70 12 74 28 L 74 32 Q 62 24 55 24 Q 48 24 36 32 Z" fill="#6B3E22"/>
  <path d="M 44 46 Q 55 52 66 46 Q 66 52 62 54 Q 55 55 48 54 Q 44 52 44 46 Z" fill="#6B3E22"/>
  <circle cx="47" cy="30" r="3.5" fill="#FFFFFF" stroke="#0A0A0B" stroke-width="1.2"/>
  <circle cx="63" cy="30" r="3.5" fill="#FFFFFF" stroke="#0A0A0B" stroke-width="1.2"/>
  <line x1="50.5" y1="30" x2="59.5" y2="30" stroke="#0A0A0B" stroke-width="1"/>
  <circle cx="47" cy="30" r="0.8" fill="#0A0A0B"/>
  <circle cx="63" cy="30" r="0.8" fill="#0A0A0B"/>
  <path d="M 49 40 Q 55 42 61 40" stroke="#0A0A0B" stroke-width="1.2" fill="none" stroke-linecap="round"/>
</svg>