<?xml version="1.0" encoding="UTF-8"?>
<svg xmlns="http://www.w3.org/2000/svg" viewBox="0 0 110 220" width="110" height="220">
  <ellipse cx="50" cy="212" rx="30" ry="3" fill="#000000" opacity="0.14"/>
  <ellipse cx="42" cy="202" rx="10" ry="3" fill="#8B6F47"/>
  <ellipse cx="60" cy="204" rx="10" ry="3" fill="#8B6F47"/>
  <rect x="35" y="118" width="3" height="84" fill="#F0C99A"/>
  <rect x="58" y="118" width="3" height="86" fill="#F0C99A"/>
  <path d="M 28 60 L 82 60 L 86 140 Q 86 146 80 146 L 30 146 Q 24 146 24 140 Z" fill="#F6C88C"/>
  <path d="M 28 60 L 82 60 L 82 66 L 28 66 Z" fill="#E8AE6B"/>
  <circle cx="38" cy="82" r="3" fill="#FF6F61"/>
  <circle cx="62" cy="90" r="3" fill="#FF6F61"/>
  <circle cx="48" cy="110" r="2.5" fill="#97C45F"/>
  <rect x="22" y="60" width="10" height="50" rx="5" fill="#F6C88C"/>
  <rect x="78" y="60" width="10" height="50" rx="5" fill="#F6C88C"/>
  <circle cx="27" cy="115" r="5" fill="#F0C99A"/>
  <circle cx="83" cy="115" r="5" fill="#F0C99A"/>
  <circle cx="55" cy="32" r="19" fill="#F0C99A"/>
  <path d="M 38 50 Q 40 42 55 42 Q 70 42 72 50" stroke="#D4A574" stroke-width="5" fill="none" stroke-linecap="round"/>
  <ellipse cx="55" cy="14" rx="34" ry="8" fill="#E8C88E"/>
  <ellipse cx="55" cy="18" rx="26" ry="4" fill="#D4A574" opacity="0.5"/>
  <circle cx="47" cy="32" r="1.5" fill="#0A0A0B"/>
  <circle cx="63" cy="32" r="1.5" fill="#0A0A0B"/>
  <path d="M 48 40 Q 55 44 62 40" stroke="#0A0A0B" stroke-width="1.3" fill="none" stroke-linecap="round"/>
</svg>