<?xml version="1.0" encoding="UTF-8"?>
<svg xmlns="http://www.w3.org/2000/svg" viewBox="0 0 110 220" width="110" height="220">
  <ellipse cx="55" cy="212" rx="30" ry="3" fill="#000000" opacity="0.14"/>
  <circle cx="55" cy="30" r="19" fill="#E8D4B8"/>
  <circle cx="55" cy="30" r="19" fill="none" stroke="#D4B896" stroke-width="0.5" opacity="0.5"/>
  <circle cx="47" cy="29" r="1.8" fill="#3D2817"/>
  <circle cx="63" cy="29" r="1.8" fill="#3D2817"/>
  <circle cx="47.5" cy="28" r="0.6" fill="#FFFFFF" opacity="0.7"/>
  <circle cx="63.5" cy="28" r="0.6" fill="#FFFFFF" opacity="0.7"/>
  <path d="M 44 26 Q 47 24 50 26" fill="none" stroke="#3D2817" stroke-width="0.7" stroke-linecap="round"/>
  <path d="M 60 26 Q 63 24 66 26" fill="none" stroke="#3D2817" stroke-width="0.7" stroke-linecap="round"/>
  <path d="M 49 40 Q 55 43 61 40" stroke="#B8906C" stroke-width="1.2" fill="none" stroke-linecap="round"/>
  <circle cx="47" cy="29" r="3" fill="none" stroke="#1A1A1A" stroke-width="1"/>
  <circle cx="63" cy="29" r="3" fill="none" stroke="#1A1A1A" stroke-width="1"/>
  <line x1="50" y1="29" x2="60" y2="29" stroke="#1A1A1A" stroke-width="0.7"/>
  <ellipse cx="55" cy="16" rx="16" ry="11" fill="#5C4A3A"/>
  <path d="M 38 22 Q 35 32 37 46" fill="#5C4A3A" stroke="#3D3024" stroke-width="0.3" opacity="0.7"/>
  <path d="M 72 22 Q 75 32 73 46" fill="#5C4A3A" stroke="#3D3024" stroke-width="0.3" opacity="0.7"/>
  <path d="M 40 18 Q 50 12 60 14 Q 68 16 72 22 L 70 24 Q 60 18 50 19 Q 44 20 40 24 Z" fill="#3D3024" opacity="0.5"/>
  <rect x="50" y="46" width="10" height="6" fill="#E8D4B8" stroke="#D4B896" stroke-width="0.4"/>
  <path d="
    M 28 54
    Q 28 50 32 50
    L 78 50
    Q 82 50 82 54
    L 80 88
    L 78 92
    L 78 118
    L 32 118
    L 32 92
    L 30 88
    Z
  " fill="#FFFFFF" stroke="#C4C4C4" stroke-width="0.5"/>
  <path d="
    M 32 92
    L 78 92
    L 78 118
    L 32 118
    Z
  " fill="#2C3E50" stroke="#1A2A38" stroke-width="0.5"/>
  <rect x="22" y="58" width="12" height="60" rx="6" fill="#FFFFFF" stroke="#C4C4C4" stroke-width="0.4"/>
  <rect x="76" y="58" width="12" height="60" rx="6" fill="#FFFFFF" stroke="#C4C4C4" stroke-width="0.4"/>
  <circle cx="28" cy="123" r="4.5" fill="#E8D4B8" stroke="#D4B896" stroke-width="0.4"/>
  <circle cx="82" cy="123" r="4.5" fill="#E8D4B8" stroke="#D4B896" stroke-width="0.4"/>
  <rect x="38" y="118" width="16" height="55" fill="#2C3E50" stroke="#1A2A38" stroke-width="0.4"/>
  <rect x="56" y="118" width="16" height="55" fill="#2C3E50" stroke="#1A2A38" stroke-width="0.4"/>
  <ellipse cx="46" cy="180" rx="9" ry="6" fill="#5C4A3A" stroke="#000000" stroke-width="0.3" opacity="0.85"/>
  <ellipse cx="64" cy="180" rx="9" ry="6" fill="#5C4A3A" stroke="#000000" stroke-width="0.3" opacity="0.85"/>
  <path d="M 30 50 L 36 50 L 36 92 L 28 92 Z" fill="#556B7F" stroke="#3D4A5C" stroke-width="0.4"/>
  <path d="M 80 50 L 74 50 L 74 92 L 82 92 Z" fill="#556B7F" stroke="#3D4A5C" stroke-width="0.4"/>
  <path d="M 50 50 L 60 50 L 58 60 L 52 60 Z" fill="#1A1A20" opacity="0.7"/>
  <path d="M 73 80 L 90 95 L 88 110 L 71 95 Z" fill="#A88C6A" stroke="#7D6648" stroke-width="0.4"/>
</svg>
