<?xml version="1.0" encoding="UTF-8"?>
<svg xmlns="http://www.w3.org/2000/svg" viewBox="0 0 110 220" width="110" height="220">
  <ellipse cx="50" cy="212" rx="30" ry="3" fill="#000000" opacity="0.14"/>
  <path d="M 26 60 L 84 60 L 90 160 Q 90 168 82 168 L 28 168 Q 20 168 20 160 Z" fill="#C7B3E0"/>
  <path d="M 32 56 Q 32 50 38 50 L 72 50 Q 78 50 78 56 L 78 66 L 32 66 Z" fill="#FFFFFF"/>
  <circle cx="55" cy="32" r="19" fill="#F0C99A"/>
  <circle cx="55" cy="10" r="10" fill="#6B3E22"/>
  <path d="M 36 32 Q 36 16 55 16 Q 74 16 74 32 Q 74 26 70 24 Q 62 30 55 30 Q 48 30 40 24 Q 36 26 36 32 Z" fill="#6B3E22"/>
  <circle cx="66" cy="6" r="4" fill="#FF6F61"/>
  <circle cx="66" cy="6" r="1.5" fill="#FFE066"/>
  <circle cx="47" cy="32" r="1.5" fill="#0A0A0B"/>
  <circle cx="63" cy="32" r="1.5" fill="#0A0A0B"/>
  <path d="M 48 40 Q 55 44 62 40" stroke="#0A0A0B" stroke-width="1.3" fill="none" stroke-linecap="round"/>
</svg>