<?xml version="1.0" encoding="UTF-8"?>
<svg xmlns="http://www.w3.org/2000/svg" viewBox="0 0 110 220" width="110" height="220">
  <ellipse cx="50" cy="212" rx="30" ry="3" fill="#000000" opacity="0.14"/>
  <rect x="48" y="118" width="16" height="68" rx="4" fill="#1C2A3A"/>
  <rect x="48" y="180" width="16" height="22" rx="3" fill="#6B4423"/>
  <ellipse cx="58" cy="204" rx="11" ry="4" fill="#3D2817"/>
  <rect x="36" y="118" width="15" height="66" rx="4" fill="#1C2A3A"/>
  <rect x="36" y="178" width="15" height="22" rx="3" fill="#6B4423"/>
  <ellipse cx="40" cy="202" rx="11" ry="4" fill="#3D2817"/>
  <path d="M 28 56 Q 28 50 34 50 L 76 50 Q 82 50 82 56 L 80 120 Q 80 124 76 124 L 34 124 Q 30 124 30 120 Z" fill="#992D2D"/>
  <line x1="55" y1="50" x2="55" y2="124" stroke="#4A0000" stroke-width="1"/>
  <line x1="35" y1="80" x2="75" y2="80" stroke="#4A0000" stroke-width="1"/>
  <line x1="35" y1="100" x2="75" y2="100" stroke="#4A0000" stroke-width="1"/>
  <rect x="22" y="58" width="12" height="60" rx="5" fill="#992D2D"/>
  <rect x="76" y="58" width="12" height="60" rx="5" fill="#992D2D"/>
  <circle cx="28" cy="122" r="5" fill="#E0AE7B"/>
  <circle cx="82" cy="122" r="5" fill="#E0AE7B"/>
  <circle cx="55" cy="32" r="19" fill="#E0AE7B"/>
  <path d="M 36 32 Q 36 14 55 14 Q 74 14 74 32 L 72 36 Q 62 26 55 26 Q 48 26 38 36 Z" fill="#A67B4B"/>
  <path d="M 42 48 Q 55 58 68 48 Q 68 54 64 56 Q 55 58 46 56 Q 42 54 42 48 Z" fill="#A67B4B"/>
  <circle cx="47" cy="32" r="1.5" fill="#0A0A0B"/>
  <circle cx="63" cy="32" r="1.5" fill="#0A0A0B"/>
  <path d="M 49 42 Q 55 44 61 42" stroke="#0A0A0B" stroke-width="1.1" fill="none" stroke-linecap="round"/>
</svg>