<?xml version="1.0" encoding="UTF-8"?>
<svg xmlns="http://www.w3.org/2000/svg" viewBox="0 0 110 220" width="110" height="220">
  <ellipse cx="55" cy="212" rx="30" ry="3" fill="#000000" opacity="0.14"/>
  <circle cx="55" cy="30" r="19" fill="#E8D4B8"/>
  <circle cx="55" cy="30" r="19" fill="none" stroke="#D4B896" stroke-width="0.5" opacity="0.5"/>
  <circle cx="47" cy="29" r="1.8" fill="#3D2817"/>
  <circle cx="63" cy="29" r="1.8" fill="#3D2817"/>
  <circle cx="47.5" cy="28" r="0.6" fill="#FFFFFF" opacity="0.7"/>
  <circle cx="63.5" cy="28" r="0.6" fill="#FFFFFF" opacity="0.7"/>
  <path d="M 44 26 Q 47 24 50 26" fill="none" stroke="#3D2817" stroke-width="0.7" stroke-linecap="round"/>
  <path d="M 60 26 Q 63 24 66 26" fill="none" stroke="#3D2817" stroke-width="0.7" stroke-linecap="round"/>
  <path d="M 49 40 Q 55 43 61 40" stroke="#B8906C" stroke-width="1.2" fill="none" stroke-linecap="round"/>
  <circle cx="47" cy="29" r="3" fill="none" stroke="#8B6F47" stroke-width="1.3"/>
  <circle cx="63" cy="29" r="3" fill="none" stroke="#8B6F47" stroke-width="1.3"/>
  <line x1="50" y1="29" x2="60" y2="29" stroke="#8B6F47" stroke-width="0.8"/>
  <ellipse cx="55" cy="16" rx="15" ry="9" fill="#7D6850"/>
  <path d="M 40 18 Q 36 28 38 38" fill="#7D6850" stroke="#5C4A3A" stroke-width="0.3" opacity="0.7"/>
  <path d="M 70 18 Q 74 28 72 38" fill="#7D6850" stroke="#5C4A3A" stroke-width="0.3" opacity="0.7"/>
  <line x1="42" y1="14" x2="46" y2="18" stroke="#C4B896" stroke-width="0.4" opacity="0.7"/>
  <line x1="50" y1="11" x2="52" y2="15" stroke="#C4B896" stroke-width="0.4" opacity="0.7"/>
  <line x1="60" y1="12" x2="62" y2="16" stroke="#C4B896" stroke-width="0.4" opacity="0.7"/>
  <line x1="68" y1="14" x2="70" y2="18" stroke="#C4B896" stroke-width="0.4" opacity="0.7"/>
  <rect x="50" y="46" width="10" height="6" fill="#E8D4B8" stroke="#D4B896" stroke-width="0.4"/>
  <path d="
    M 28 54
    Q 28 50 32 50
    L 78 50
    Q 82 50 82 54
    L 80 88
    L 78 92
    L 78 118
    L 32 118
    L 32 92
    L 30 88
    Z
  " fill="#A89274" stroke="#7D6648" stroke-width="0.5"/>
  <path d="
    M 32 92
    L 78 92
    L 78 118
    L 32 118
    Z
  " fill="#6B5A6B" stroke="#3D2A3D" stroke-width="0.5"/>
  <rect x="22" y="58" width="12" height="60" rx="6" fill="#A89274" stroke="#7D6648" stroke-width="0.4"/>
  <rect x="76" y="58" width="12" height="60" rx="6" fill="#A89274" stroke="#7D6648" stroke-width="0.4"/>
  <circle cx="28" cy="123" r="4.5" fill="#E8D4B8" stroke="#D4B896" stroke-width="0.4"/>
  <circle cx="82" cy="123" r="4.5" fill="#E8D4B8" stroke="#D4B896" stroke-width="0.4"/>
  <rect x="38" y="118" width="16" height="55" fill="#6B5A6B" stroke="#3D2A3D" stroke-width="0.4"/>
  <rect x="56" y="118" width="16" height="55" fill="#6B5A6B" stroke="#3D2A3D" stroke-width="0.4"/>
  <ellipse cx="46" cy="180" rx="9" ry="6" fill="#5C4A3A" stroke="#000000" stroke-width="0.3" opacity="0.85"/>
  <ellipse cx="64" cy="180" rx="9" ry="6" fill="#5C4A3A" stroke="#000000" stroke-width="0.3" opacity="0.85"/>
  <path d="M 28 100 L 34 95 L 34 115 L 28 120 Z" fill="#5C4A3A" stroke="#3D3024" stroke-width="0.4"/>
  <line x1="31" y1="100" x2="31" y2="118" stroke="#FFFFFF" stroke-width="0.4" opacity="0.5"/>
  <line x1="40" y1="98" x2="70" y2="98" stroke="#3D2A3D" stroke-width="0.2" opacity="0.4"/>
  <line x1="40" y1="106" x2="70" y2="106" stroke="#3D2A3D" stroke-width="0.2" opacity="0.4"/>
</svg>
