<?xml version="1.0" encoding="UTF-8"?>
<svg xmlns="http://www.w3.org/2000/svg" viewBox="0 0 110 220" width="110" height="220">
  <ellipse cx="55" cy="212" rx="30" ry="3" fill="#000000" opacity="0.14"/>
  <circle cx="55" cy="30" r="19" fill="#D4A878"/>
  <circle cx="55" cy="30" r="19" fill="none" stroke="#A88454" stroke-width="0.5" opacity="0.5"/>
  <circle cx="47" cy="29" r="1.8" fill="#3D2817"/>
  <circle cx="63" cy="29" r="1.8" fill="#3D2817"/>
  <circle cx="47.5" cy="28" r="0.6" fill="#FFFFFF" opacity="0.7"/>
  <circle cx="63.5" cy="28" r="0.6" fill="#FFFFFF" opacity="0.7"/>
  <path d="M 44 26 Q 47 24 50 26" fill="none" stroke="#3D2817" stroke-width="0.7" stroke-linecap="round"/>
  <path d="M 60 26 Q 63 24 66 26" fill="none" stroke="#3D2817" stroke-width="0.7" stroke-linecap="round"/>
  <path d="M 49 40 Q 55 43 61 40" stroke="#B8906C" stroke-width="1.2" fill="none" stroke-linecap="round"/>
  <ellipse cx="55" cy="14" rx="17" ry="11" fill="#5C4A3A"/>
  <path d="M 38 20 Q 32 30 34 50 Q 38 54 42 52 L 42 26" fill="#5C4A3A" stroke="#3D3024" stroke-width="0.3"/>
  <path d="M 72 20 Q 78 30 76 50 Q 72 54 68 52 L 68 26" fill="#5C4A3A" stroke="#3D3024" stroke-width="0.3"/>
  <rect x="36" y="14" width="38" height="6" rx="2" fill="#3D5C7F" stroke="#1F3A50" stroke-width="0.4"/>
  <line x1="38" y1="17" x2="72" y2="17" stroke="#FFFFFF" stroke-width="0.3" opacity="0.5"/>
  <rect x="50" y="46" width="10" height="6" fill="#D4A878" stroke="#A88454" stroke-width="0.4"/>
  <path d="
    M 28 54
    Q 28 50 32 50
    L 78 50
    Q 82 50 82 54
    L 80 88
    L 78 92
    L 78 118
    L 32 118
    L 32 92
    L 30 88
    Z
  " fill="#556B7F" stroke="#3D4A5C" stroke-width="0.5"/>
  <path d="
    M 32 92
    L 78 92
    L 78 118
    L 32 118
    Z
  " fill="#1A1A1A" stroke="#0A0A0B" stroke-width="0.5"/>
  <rect x="32" y="86" width="46" height="6" rx="1" fill="#E89030" stroke="#A86010" stroke-width="0.5"/>
  <rect x="32" y="92" width="46" height="3" fill="#A86010"/>
  <line x1="40" y1="92" x2="40" y2="100" stroke="#A86010" stroke-width="1.5"/>
  <line x1="55" y1="92" x2="55" y2="98" stroke="#A86010" stroke-width="1.5"/>
  <line x1="70" y1="92" x2="70" y2="100" stroke="#A86010" stroke-width="1.5"/>
  <ellipse cx="78" cy="94" rx="2" ry="3" fill="#C0C0C0" stroke="#5C5C5C" stroke-width="0.3"/>
  <path d="M 30 60 Q 22 72 22 90 Q 22 100 26 102 Q 30 100 28 90 Q 26 72 32 64 Z" fill="#E89030" stroke="#A86010" stroke-width="0.4"/>
</svg>
