<?xml version="1.0" encoding="UTF-8"?>
<svg xmlns="http://www.w3.org/2000/svg" viewBox="0 0 110 220" width="110" height="220">
  <ellipse cx="50" cy="212" rx="30" ry="3" fill="#000000" opacity="0.14"/>
  <path d="M 28 56 Q 28 50 34 50 L 76 50 Q 82 50 82 56 L 80 120 Q 80 124 76 124 L 34 124 Q 30 124 30 120 Z" fill="#00B8D9"/>
  <path d="M 28 50 Q 36 38 55 38 Q 74 38 82 50 L 82 58 L 28 58 Z" fill="#0099B3"/>
  <circle cx="55" cy="30" r="19" fill="#F0C99A"/>
  <path d="M 34 32 Q 34 10 55 10 Q 76 10 76 32 Z" fill="#FF6F61"/>
  <rect x="32" y="30" width="46" height="6" rx="2" fill="#FF6F61"/>
  <circle cx="47" cy="30" r="1.5" fill="#0A0A0B"/>
  <circle cx="63" cy="30" r="1.5" fill="#0A0A0B"/>
  <path d="M 48 38 Q 55 42 62 38" stroke="#0A0A0B" stroke-width="1.3" fill="none" stroke-linecap="round"/>
</svg>