<?xml version="1.0" encoding="UTF-8"?>
<svg xmlns="http://www.w3.org/2000/svg" viewBox="0 0 110 220" width="110" height="220">
  <ellipse cx="50" cy="212" rx="30" ry="3" fill="#000000" opacity="0.14"/>
  <path d="M 28 56 Q 28 50 34 50 L 76 50 Q 82 50 82 56 L 80 120 Q 80 124 76 124 L 34 124 Q 30 124 30 120 Z" fill="#1A1A1A"/>
  <circle cx="55" cy="20" r="26" fill="#1A1A1A"/>
  <circle cx="55" cy="34" r="19" fill="#5D3D28"/>
  <rect x="32" y="30" width="6" height="18" rx="3" fill="#0A0A0B"/>
  <rect x="72" y="30" width="6" height="18" rx="3" fill="#0A0A0B"/>
  <rect x="30" y="28" width="50" height="4" rx="2" fill="#00B8D9"/>
  <circle cx="47" cy="34" r="1.5" fill="#0A0A0B"/>
  <circle cx="63" cy="34" r="1.5" fill="#0A0A0B"/>
  <path d="M 48 42 Q 55 46 62 42" stroke="#0A0A0B" stroke-width="1.3" fill="none" stroke-linecap="round"/>
</svg>