<?xml version="1.0" encoding="UTF-8"?>
<svg xmlns="http://www.w3.org/2000/svg" viewBox="0 0 110 220" width="110" height="220">
  <ellipse cx="50" cy="212" rx="30" ry="3" fill="#000000" opacity="0.14"/>
  <rect x="48" y="118" width="16" height="50" rx="4" fill="#F0F0F0"/>
  <ellipse cx="58" cy="200" rx="10" ry="4" fill="#FFFFFF"/>
  <rect x="54" y="168" width="4" height="34" fill="#E0AE7B"/>
  <rect x="36" y="118" width="15" height="50" rx="4" fill="#F0F0F0"/>
  <ellipse cx="40" cy="198" rx="10" ry="4" fill="#FFFFFF"/>
  <rect x="42" y="168" width="4" height="32" fill="#E0AE7B"/>
  <path d="M 28 56 Q 28 50 34 50 L 76 50 Q 82 50 82 56 L 80 120 Q 80 124 76 124 L 34 124 Q 30 124 30 120 Z" fill="#FF6F61"/>
  <rect x="22" y="58" width="12" height="55" rx="5" fill="#E0AE7B"/>
  <rect x="76" y="58" width="12" height="55" rx="5" fill="#E0AE7B"/>
  <circle cx="28" cy="118" r="5" fill="#E0AE7B"/>
  <circle cx="82" cy="118" r="5" fill="#E0AE7B"/>
  <circle cx="55" cy="32" r="19" fill="#E0AE7B"/>
  <path d="M 30 32 L 80 32 L 76 20 Q 55 8 34 20 Z" fill="#00B8D9"/>
  <ellipse cx="55" cy="32" rx="28" ry="3" fill="#0088A3"/>
  <circle cx="47" cy="36" r="1.5" fill="#0A0A0B"/>
  <circle cx="63" cy="36" r="1.5" fill="#0A0A0B"/>
  <path d="M 48 44 Q 55 48 62 44" stroke="#0A0A0B" stroke-width="1.3" fill="none" stroke-linecap="round"/>
</svg>