<?xml version="1.0" encoding="UTF-8"?>
<svg xmlns="http://www.w3.org/2000/svg" viewBox="0 0 110 220" width="110" height="220">
  <ellipse cx="55" cy="212" rx="30" ry="3" fill="#000000" opacity="0.14"/>
  <circle cx="55" cy="30" r="19" fill="#E8D4B8"/>
  <circle cx="55" cy="30" r="19" fill="none" stroke="#D4B896" stroke-width="0.5" opacity="0.5"/>
  <circle cx="47" cy="29" r="1.8" fill="#3D2817"/>
  <circle cx="63" cy="29" r="1.8" fill="#3D2817"/>
  <circle cx="47.5" cy="28" r="0.6" fill="#FFFFFF" opacity="0.7"/>
  <circle cx="63.5" cy="28" r="0.6" fill="#FFFFFF" opacity="0.7"/>
  <path d="M 44 26 Q 47 24 50 26" fill="none" stroke="#3D2817" stroke-width="0.7" stroke-linecap="round"/>
  <path d="M 60 26 Q 63 24 66 26" fill="none" stroke="#3D2817" stroke-width="0.7" stroke-linecap="round"/>
  <path d="M 49 40 Q 55 43 61 40" stroke="#B8906C" stroke-width="1.2" fill="none" stroke-linecap="round"/>
  <ellipse cx="55" cy="14" rx="17" ry="11" fill="#7D4E2A"/>
  <path d="M 38 22 Q 33 30 35 42" fill="#7D4E2A" stroke="#5A3618" stroke-width="0.3" opacity="0.6"/>
  <path d="M 72 22 Q 77 30 75 42" fill="#7D4E2A" stroke="#5A3618" stroke-width="0.3" opacity="0.6"/>
  <ellipse cx="76" cy="48" rx="6" ry="8" fill="#7D4E2A" stroke="#5A3618" stroke-width="0.3"/>
  <path d="M 72 42 Q 78 40 82 46 Q 80 50 76 50" fill="#5A3618" opacity="0.5"/>
  <rect x="50" y="46" width="10" height="6" fill="#E8D4B8" stroke="#D4B896" stroke-width="0.4"/>
  <path d="
    M 28 54
    Q 28 50 32 50
    L 78 50
    Q 82 50 82 54
    L 80 88
    L 78 92
    L 78 118
    L 32 118
    L 32 92
    L 30 88
    Z
  " fill="#6B5A7F" stroke="#3D2A50" stroke-width="0.5"/>
  <path d="
    M 32 92
    L 78 92
    L 78 118
    L 32 118
    Z
  " fill="#1A1A1A" stroke="#0A0A0B" stroke-width="0.5"/>
  <rect x="22" y="58" width="12" height="60" rx="6" fill="#6B5A7F" stroke="#3D2A50" stroke-width="0.4"/>
  <rect x="76" y="58" width="12" height="60" rx="6" fill="#6B5A7F" stroke="#3D2A50" stroke-width="0.4"/>
  <circle cx="28" cy="123" r="4.5" fill="#E8D4B8" stroke="#D4B896" stroke-width="0.4"/>
  <circle cx="82" cy="123" r="4.5" fill="#E8D4B8" stroke="#D4B896" stroke-width="0.4"/>
  <rect x="38" y="118" width="16" height="55" fill="#1A1A1A" stroke="#0A0A0B" stroke-width="0.4"/>
  <rect x="56" y="118" width="16" height="55" fill="#1A1A1A" stroke="#0A0A0B" stroke-width="0.4"/>
  <ellipse cx="46" cy="180" rx="9" ry="6" fill="#2A2A2A" stroke="#000000" stroke-width="0.3" opacity="0.85"/>
  <ellipse cx="64" cy="180" rx="9" ry="6" fill="#2A2A2A" stroke="#000000" stroke-width="0.3" opacity="0.85"/>
  <path d="M 50 52 L 60 52 L 56 64 L 50 56 Z" fill="#FFFFFF"/>
  <path d="M 47 50 Q 55 46 63 50 L 63 56 Q 55 52 47 56 Z" fill="#1A1A1A" stroke="#0A0A0B" stroke-width="0.4"/>
  <rect x="68" y="62" width="3" height="6" fill="#A8A8A8" stroke="#5C5C5C" stroke-width="0.3"/>
</svg>
