<?xml version="1.0" encoding="UTF-8"?>
<svg xmlns="http://www.w3.org/2000/svg" viewBox="0 0 110 220" width="110" height="220">
  <ellipse cx="50" cy="212" rx="30" ry="3" fill="#000000" opacity="0.14"/>
  <ellipse cx="42" cy="204" rx="7" ry="3" fill="#3D2817"/>
  <ellipse cx="60" cy="204" rx="7" ry="3" fill="#3D2817"/>
  <rect x="38" y="118" width="2" height="86" fill="#E8B88B"/>
  <rect x="60" y="118" width="2" height="86" fill="#E8B88B"/>
  <path d="M 26 60 L 84 60 L 90 170 Q 90 180 80 180 L 30 180 Q 20 180 20 170 Z" fill="#97C45F"/>
  <path d="M 32 58 Q 32 48 38 48 L 72 48 Q 78 48 78 58 L 78 64 L 32 64 Z" fill="#97C45F"/>
  <rect x="22" y="58" width="12" height="60" rx="5" fill="#97C45F"/>
  <rect x="76" y="58" width="12" height="60" rx="5" fill="#97C45F"/>
  <circle cx="28" cy="122" r="5" fill="#E8B88B"/>
  <circle cx="82" cy="122" r="5" fill="#E8B88B"/>
  <circle cx="55" cy="32" r="19" fill="#E8B88B"/>
  <path d="M 32 32 Q 30 58 34 86 Q 42 72 46 56 Q 40 40 32 32 Z" fill="#1A1A1A"/>
  <path d="M 78 32 Q 80 58 76 86 Q 68 72 64 56 Q 70 40 78 32 Z" fill="#1A1A1A"/>
  <path d="M 36 30 Q 36 14 55 14 Q 74 14 74 30 L 74 40 Q 62 28 55 28 Q 48 28 36 40 Z" fill="#1A1A1A"/>
  <circle cx="47" cy="32" r="1.5" fill="#0A0A0B"/>
  <circle cx="63" cy="32" r="1.5" fill="#0A0A0B"/>
  <path d="M 48 40 Q 55 44 62 40" stroke="#0A0A0B" stroke-width="1.3" fill="none" stroke-linecap="round"/>
</svg>