<?xml version="1.0" encoding="UTF-8"?>
<svg xmlns="http://www.w3.org/2000/svg" viewBox="0 0 110 220" width="110" height="220">
  <ellipse cx="50" cy="212" rx="30" ry="3" fill="#000000" opacity="0.14"/>
  <path d="M 28 56 Q 28 50 34 50 L 76 50 Q 82 50 82 56 L 80 120 Q 80 124 76 124 L 34 124 Q 30 124 30 120 Z" fill="#3E5D7E"/>
  <path d="M 45 50 L 40 60 L 52 58 Z" fill="#FFFFFF"/>
  <path d="M 65 50 L 70 60 L 58 58 Z" fill="#FFFFFF"/>
  <line x1="42" y1="60" x2="42" y2="122" stroke="#2D4963" stroke-width="0.8"/>
  <line x1="68" y1="60" x2="68" y2="122" stroke="#2D4963" stroke-width="0.8"/>
  <ellipse cx="82" cy="32" rx="6" ry="20" fill="#C25A29"/>
  <rect x="76" y="15" width="10" height="7" rx="3" fill="#A0401F"/>
  <circle cx="55" cy="32" r="19" fill="#F5E1CA"/>
  <path d="M 36 28 Q 36 14 55 14 Q 74 14 74 28 L 74 36 Q 62 24 55 24 Q 48 24 36 36 Z" fill="#C25A29"/>
  <circle cx="47" cy="32" r="1.5" fill="#0A0A0B"/>
  <circle cx="63" cy="32" r="1.5" fill="#0A0A0B"/>
  <path d="M 48 40 Q 55 44 62 40" stroke="#0A0A0B" stroke-width="1.3" fill="none" stroke-linecap="round"/>
</svg>