<?xml version="1.0" encoding="UTF-8"?>
<svg xmlns="http://www.w3.org/2000/svg" viewBox="0 0 110 220" width="110" height="220">
  <ellipse cx="50" cy="212" rx="30" ry="3" fill="#000000" opacity="0.14"/>
  <path d="M 28 56 Q 28 50 34 50 L 76 50 Q 82 50 82 56 L 80 120 Q 80 124 76 124 L 34 124 Q 30 124 30 120 Z" fill="#F6AE2D"/>
  <path d="M 42 50 L 55 58 L 68 50 Z" fill="#FFFFFF"/>
  <circle cx="55" cy="32" r="19" fill="#E0AE7B"/>
  <path d="M 36 28 Q 34 12 55 12 Q 76 12 74 28 Q 68 22 55 22 Q 42 22 36 28 Z" fill="#6B3E22"/>
  <circle cx="38" cy="22" r="3" fill="#6B3E22"/>
  <circle cx="72" cy="22" r="3" fill="#6B3E22"/>
  <rect x="41" y="28" width="12" height="8" rx="1.5" fill="none" stroke="#0A0A0B" stroke-width="1.3"/>
  <rect x="57" y="28" width="12" height="8" rx="1.5" fill="none" stroke="#0A0A0B" stroke-width="1.3"/>
  <line x1="53" y1="32" x2="57" y2="32" stroke="#0A0A0B" stroke-width="1.3"/>
  <circle cx="47" cy="32" r="0.8" fill="#0A0A0B"/>
  <circle cx="63" cy="32" r="0.8" fill="#0A0A0B"/>
  <path d="M 49 42 Q 55 44 61 42" stroke="#0A0A0B" stroke-width="1.2" fill="none" stroke-linecap="round"/>
</svg>