<?xml version="1.0" encoding="UTF-8"?>
<svg xmlns="http://www.w3.org/2000/svg" viewBox="0 0 110 220" width="110" height="220">
  <ellipse cx="55" cy="212" rx="30" ry="3" fill="#000000" opacity="0.14"/>
  <circle cx="55" cy="30" r="19" fill="#F0DCC4"/>
  <circle cx="55" cy="30" r="19" fill="none" stroke="#D4B896" stroke-width="0.5" opacity="0.5"/>
  <circle cx="47" cy="29" r="1.8" fill="#3D2817"/>
  <circle cx="63" cy="29" r="1.8" fill="#3D2817"/>
  <circle cx="47.5" cy="28" r="0.6" fill="#FFFFFF" opacity="0.7"/>
  <circle cx="63.5" cy="28" r="0.6" fill="#FFFFFF" opacity="0.7"/>
  <path d="M 44 26 Q 47 24 50 26" fill="none" stroke="#3D2817" stroke-width="0.7" stroke-linecap="round"/>
  <path d="M 60 26 Q 63 24 66 26" fill="none" stroke="#3D2817" stroke-width="0.7" stroke-linecap="round"/>
  <path d="M 49 40 Q 55 43 61 40" stroke="#B8906C" stroke-width="1.2" fill="none" stroke-linecap="round"/>
  <ellipse cx="55" cy="14" rx="19" ry="11" fill="#0A0A0B"/>
  <path d="M 36 18 Q 30 40 32 70 Q 36 75 42 72 L 42 24" fill="#0A0A0B" stroke="#000000" stroke-width="0.3"/>
  <path d="M 74 18 Q 80 40 78 70 Q 74 75 68 72 L 68 24" fill="#0A0A0B" stroke="#000000" stroke-width="0.3"/>
  <rect x="36" y="14" width="38" height="6" rx="2" fill="#1F3A4A" stroke="#0F2030" stroke-width="0.4"/>
  <rect x="50" y="46" width="10" height="6" fill="#F0DCC4" stroke="#D4B896" stroke-width="0.4"/>
  <path d="
    M 28 54
    Q 28 50 32 50
    L 78 50
    Q 82 50 82 54
    L 80 88
    L 78 92
    L 78 118
    L 32 118
    L 32 92
    L 30 88
    Z
  " fill="#E6F029" stroke="#A8AC1A" stroke-width="0.5"/>
  <path d="
    M 32 92
    L 78 92
    L 78 118
    L 32 118
    Z
  " fill="#1A1A1A" stroke="#0A0A0B" stroke-width="0.5"/>
  <rect x="40" y="58" width="6" height="14" rx="1" fill="#A8AC1A" opacity="0.5"/>
  <rect x="64" y="58" width="6" height="14" rx="1" fill="#A8AC1A" opacity="0.5"/>
  <line x1="34" y1="65" x2="76" y2="65" stroke="#A8AC1A" stroke-width="0.3" opacity="0.5"/>
  <path d="M 80 50 L 100 70 L 90 110 L 70 88 Z" fill="none" stroke="#1A1A1A" stroke-width="2"/>
  <ellipse cx="78" cy="56" rx="6" ry="3" fill="#3D7A9F" stroke="#1F3A4A" stroke-width="0.5"/>
  <ellipse cx="100" cy="106" rx="6" ry="3" fill="#3D7A9F" stroke="#1F3A4A" stroke-width="0.5" transform="rotate(45 100 106)"/>
</svg>
